<svg xmlns="http://www.w3.org/2000/svg" version="1.1" xmlns:xlink="http://www.w3.org/1999/xlink" width="1000" height="1000"><g clip-path="url(#SvgjsClipPath1033)"><rect width="1000" height="1000" fill="#ffffff"></rect><g transform="matrix(7.3230268510984535,0,0,7.3230268510984535,50,98.3319772172498)"><svg xmlns="http://www.w3.org/2000/svg" version="1.1" xmlns:xlink="http://www.w3.org/1999/xlink" width="122.9" height="109.7"><svg id="Layer_1" xmlns="http://www.w3.org/2000/svg" version="1.1" viewBox="0 0 122.9 109.7">

  <path d="M66.6,96.3h21.8v-18h-15.1v-6.5h15.7c.3,0,.5,0,.8,0,2-.2,3.7-1.1,5-2.2,1.3-1.1,2.2-2.5,2.7-4,.5-1.4.6-2.9.5-4.3-.2-1.5-.8-3.1-1.8-4.4,0-.1-.2-.3-.3-.4l-1.4-1.6-4.4-5.2c.4-.3.8-.7,1.2-1,1.1-1.1,1.9-2.5,2.3-3.9.4-1.4.5-3,.2-4.5-.3-1.7-1.1-3.4-2.5-4.8l-7.8-9.1,6.6-7.8c.9-1,1.8-2.5,3.3-2.5,1.3,0,2.1,1.2,2.8,2.1l13.4,15.6c1.5,2.1.2,4.3-2.3,4.3h-3.6l13.8,16.1c1.7,1.6.8,4.2-1.1,4.6h-8l12,14.1,1.3,1.5c1,1.2.5,3.8-1.7,4h-21.6v18h17.7c3.7,0,6.7,3,6.7,6.7s-3,6.7-6.7,6.7H6.7c-3.7,0-6.7-3-6.7-6.7s3-6.7,6.7-6.7h16.9v-18H3.5c-3.4.3-4.1-2.3-2.6-4.6l12.9-15.1-.4-.4h-6.9c-2.5.4-3.4-2.3-1.9-4.2l13.8-16.3h-4c-2.5,0-3.2-2.3-1.5-4.5l12.6-15c.9-1,1.8-2.5,3.3-2.5,1.3,0,2.1,1.2,2.8,2.1l7.2,8.4-7.3,8.6c-.2.2-.4.4-.5.6-1.3,1.6-2,3.5-2.2,5.4-.2,1.8.2,3.5.9,5.1.7,1.4,1.7,2.5,3,3.4l-5.5,6.4h0c-.2.2-.4.5-.5.7-1.4,2.1-2,4.5-1.8,6.8.1,1.3.5,2.6,1.1,3.7.7,1.2,1.7,2.3,2.9,3.1,1.6,1,3.6,1.6,5.9,1.6h14.4v6.5h-15.5v18h22.3" fill="#012169"></path>
  <path d="M56,96.3v-31.3h-20.9c-3.5.3-4.2-2.5-2.7-4.8l13.4-15.7-.4-.4h-7.2c-2.6.4-3.6-2.4-2-4.4l14.4-16.9h-4.2c-2.6,0-3.3-2.4-1.6-4.6l13.1-15.6C58.8,1.5,59.8,0,61.3,0c1.3,0,2.2,1.3,2.9,2.2l14,16.3c1.5,2.2.2,4.5-2.4,4.5h-3.8l14.3,16.8c1.7,1.7.8,4.4-1.1,4.8h-8.3l12.5,14.6,1.4,1.6c1,1.2.5,3.9-1.7,4.2h-22.5v31.3" fill="#e4002b"></path>
</svg></svg></g></g><defs><clipPath id="SvgjsClipPath1033"><rect width="1000" height="1000" x="0" y="0" rx="350" ry="350"></rect></clipPath></defs></svg>